<svg width="408" height="400" viewBox="0 0 408 400" fill="none" xmlns="http://www.w3.org/2000/svg">
<mask id="mask0_78_71" style="mask-type:alpha" maskUnits="userSpaceOnUse" x="0" y="0" width="398" height="396">
<path d="M0 231.277L109.112 172.256L187.495 335.673L78.3828 394.694L0 231.277Z" fill="#D9D9D9"/>
<path d="M87.0907 88.0588L249.885 0L397.384 307.515L234.59 395.574L87.0907 88.0588Z" fill="#D9D9D9"/>
</mask>
<g mask="url(#mask0_78_71)">
<mask id="mask1_78_71" style="mask-type:alpha" maskUnits="userSpaceOnUse" x="18" y="0" width="416" height="451">
<path d="M68.4075 0.852112L433.559 51.0523L410.067 243.758L44.9155 193.558L68.4075 0.852112Z" fill="#D9D9D9"/>
<path d="M41.9803 207.752L407.132 257.952L383.64 450.658L18.4883 400.458L41.9803 207.752Z" fill="#D9D9D9"/>
</mask>
<g mask="url(#mask1_78_71)">
<path d="M167.994 247.952L218.038 167.958L260.207 247.952H167.994Z" stroke="black" stroke-width="4.23215"/>
<path d="M243.543 49.944H200.894L123.745 166.947L114.101 181.573L113.499 182.487L112.896 183.401L111.69 185.229L109.28 188.886L104.458 196.198L85.1704 225.449L46.5957 283.951L62.6299 315.828L336.977 321.18L360.778 282.723L243.543 49.944Z" stroke="black" stroke-width="3.0105"/>
<path d="M62.6275 315.804L52.3077 295.317L46.5271 283.842L280.584 287.038L214.394 161.077L239.945 122.36L336.963 320.903L62.6275 315.804Z" fill="url(#paint0_linear_78_71)"/>
<path fill-rule="evenodd" clip-rule="evenodd" d="M46.5406 283.839L62.641 315.8L336.976 320.899L238.76 122.57L214.407 161.073L280.597 287.034L46.5406 283.839ZM218.131 161.505L285.836 290.347L51.6726 287.15L64.4892 312.593L331.85 317.563L238.126 128.218L218.131 161.505Z" fill="black"/>
<path d="M360.734 282.688L336.982 320.899L241.155 130.669L152.425 273.408L108.657 258.773L243.562 50.0184L360.734 282.688Z" fill="url(#paint1_linear_78_71)"/>
<path d="M360.734 282.688L336.982 320.899L241.155 130.669L152.425 273.408L108.657 258.773L243.562 50.0184L360.734 282.688Z" fill="url(#paint2_linear_78_71)"/>
<path fill-rule="evenodd" clip-rule="evenodd" d="M336.982 320.899L360.734 282.688L243.562 50.0184L108.657 258.773L152.425 273.408L241.155 130.669L336.982 320.899ZM151.145 269.579L241.43 124.339L337.257 314.569L357.183 282.514L243.238 56.252L113.51 256.996L151.145 269.579Z" fill="black"/>
<path d="M281.316 287.375L46.5459 284.091L200.835 50.0635L243.553 50.0635L115.579 248.173L260.209 248.173L281.316 287.375Z" fill="url(#paint3_linear_78_71)"/>
<path d="M281.316 287.375L46.5459 284.091L200.835 50.0635L243.553 50.0635L115.579 248.173L260.209 248.173L281.316 287.375Z" fill="url(#paint4_linear_78_71)"/>
<path d="M281.316 287.375L46.5459 284.091L200.835 50.0635L243.553 50.0635L115.579 248.173L260.209 248.173L281.316 287.375Z" fill="url(#paint5_linear_78_71)"/>
<path fill-rule="evenodd" clip-rule="evenodd" d="M243.553 50.0635L200.835 50.0635L46.5459 284.091L281.316 287.375L260.209 248.173L115.579 248.173L243.553 50.0635ZM258.437 251.417L109.78 251.417L237.754 53.3068L202.425 53.3068L52.3589 280.929L276.011 284.057L258.437 251.417Z" fill="black"/>
<path d="M113.153 186.294L175.217 316.49" stroke="black" stroke-width="2.96687"/>
<path d="M126.747 163.86L200.09 318.081" stroke="black" stroke-width="2.96687"/>
<path d="M112.941 182.03L178.518 318.598" stroke="black" stroke-width="1.74522"/>
<path d="M124.115 163.74L199.138 319.629" stroke="black" stroke-width="1.74522"/>
<path d="M103.199 201.069L121.11 203.64" stroke="black" stroke-width="6.77699"/>
<path d="M92.0664 215.977L132.728 222.146" stroke="black" stroke-width="6.77699"/>
<path d="M144.342 205.696L192.749 212.379" stroke="black" stroke-width="6.77699"/>
<path d="M244.066 218.034L332.651 230.885" stroke="black" stroke-width="6.77699"/>
<path d="M256.652 239.624L345.237 251.448" stroke="black" stroke-width="6.77699"/>
<path d="M150.151 223.174L181.132 227.287" stroke="black" stroke-width="6.77699"/>
</g>
</g>
<path fill-rule="evenodd" clip-rule="evenodd" d="M76.9238 89.556L142.619 126.138L140.532 130.365L87.1593 100.644L154.984 244.922L222.809 389.199L240.752 348.959L240.759 348.945L249.17 330.24L253.226 332.297L244.804 351.023L222.864 400L76.9238 89.556Z" fill="black"/>
<path d="M320.812 184.075L316.742 182.053L352.816 100.15L293.572 130.402L291.625 126.101L362.226 90.0497L320.812 184.075Z" fill="black"/>
<path d="M99.8763 178.314L32.1064 200.419L400 250.282L331.262 203.503" stroke="black" stroke-width="3.87256" stroke-miterlimit="16" stroke-linecap="square"/>
<path d="M91.9666 351.917V336.303C91.9666 335.219 91.682 334.406 91.1127 333.864C90.5706 333.321 89.8115 333.05 88.8356 333.05H77.2063V327.276H89.1609C92.4139 327.276 94.8536 328.022 96.4801 329.513C98.1337 331.004 98.9605 333.227 98.9605 336.181V351.917H91.9666ZM72.9368 351.917L73.6688 346.143H75.1326C75.6205 346.143 76 346.062 76.2711 345.9C76.5693 345.71 76.7997 345.439 76.9624 345.086C77.125 344.707 77.2063 344.259 77.2063 343.744V328.578H84.2002V343.46C84.2002 346.225 83.5496 348.326 82.2484 349.762C80.9743 351.199 79.0903 351.917 76.5964 351.917H72.9368ZM73.5061 333.05L74.238 327.276H81.1912V333.05H73.5061ZM118.371 323.332C118.127 324.281 117.816 325.311 117.436 326.422C117.057 327.507 116.65 328.605 116.216 329.716C115.783 330.8 115.335 331.844 114.875 332.847H110.524C110.795 331.763 111.052 330.638 111.296 329.472C111.54 328.279 111.771 327.114 111.988 325.975C112.204 324.837 112.381 323.807 112.516 322.885H118.087L118.371 323.332ZM109.101 323.332C108.857 324.281 108.545 325.311 108.165 326.422C107.786 327.507 107.379 328.605 106.945 329.716C106.512 330.8 106.064 331.844 105.604 332.847H101.253C101.443 332.034 101.632 331.193 101.822 330.326C102.012 329.459 102.188 328.591 102.351 327.724C102.54 326.829 102.703 325.975 102.839 325.162C103.001 324.349 103.137 323.59 103.245 322.885H108.816L109.101 323.332ZM120.173 351.917L122.898 337.564L119.441 327.276H126.435L127.818 332.562H128.062C128.468 331.532 128.916 330.665 129.404 329.96C129.919 329.228 130.515 328.645 131.193 328.212C131.87 327.751 132.643 327.412 133.51 327.195C134.405 326.978 135.408 326.87 136.519 326.87C138.498 326.87 140.22 327.358 141.683 328.334C143.147 329.282 144.299 330.651 145.14 332.44C145.98 334.23 146.4 336.385 146.4 338.906V339.434C146.4 341.901 145.939 344.07 145.018 345.94C144.123 347.811 142.822 349.274 141.114 350.332C139.406 351.389 137.333 351.917 134.893 351.917H131.03L131.843 346.143H134.527C136.072 346.143 137.265 345.52 138.105 344.273C138.973 342.999 139.406 341.386 139.406 339.434V338.906C139.406 337.577 139.217 336.466 138.837 335.571C138.458 334.65 137.929 333.945 137.251 333.457C136.601 332.969 135.855 332.725 135.015 332.725C134.12 332.725 133.361 332.861 132.738 333.132C132.141 333.376 131.64 333.769 131.233 334.311C130.827 334.826 130.501 335.463 130.257 336.222C130.013 336.981 129.81 337.876 129.648 338.906L127.411 351.917H120.173ZM165.789 351.917C164.596 349.857 163.457 347.96 162.373 346.225C161.289 344.463 160.191 342.782 159.079 341.183C157.968 339.583 156.735 337.957 155.379 336.303C154.864 335.68 154.268 334.948 153.59 334.108C152.939 333.24 152.262 332.359 151.557 331.465C150.879 330.57 150.242 329.757 149.646 329.025C149.077 328.266 148.616 327.683 148.263 327.276H156.843C157.385 327.927 157.982 328.7 158.632 329.594C159.283 330.489 159.906 331.37 160.503 332.237C161.126 333.105 161.641 333.836 162.048 334.433C163.322 336.358 164.623 338.282 165.951 340.207C167.28 342.104 168.608 344.016 169.936 345.94C171.292 347.865 172.606 349.857 173.88 351.917H165.789ZM147.694 351.917L148.67 345.412C148.887 343.975 149.239 342.592 149.727 341.264C150.242 339.936 151.028 338.757 152.086 337.726C153.17 336.696 154.674 335.937 156.599 335.449L158.632 339.922C157.873 340.166 157.29 340.6 156.884 341.223C156.504 341.82 156.233 342.525 156.07 343.338C155.908 344.151 155.745 344.991 155.582 345.859L154.647 351.917H147.694ZM164.935 341.996L162.942 337.523C163.837 337.252 164.501 336.818 164.935 336.222C165.368 335.598 165.68 334.88 165.87 334.067C166.06 333.254 166.195 332.427 166.277 331.587L166.805 327.276H173.758L173.27 332.034C173.135 333.471 172.782 334.853 172.213 336.181C171.644 337.51 170.776 338.689 169.611 339.719C168.445 340.722 166.887 341.481 164.935 341.996Z" fill="black"/>
<defs>
<linearGradient id="paint0_linear_78_71" x1="238.376" y1="146.983" x2="229.685" y2="322.576" gradientUnits="userSpaceOnUse">
<stop stop-color="#881014"/>
<stop offset="0.348958" stop-color="#EB3434"/>
<stop offset="1" stop-color="#EEDA39"/>
</linearGradient>
<linearGradient id="paint1_linear_78_71" x1="122.13" y1="251.109" x2="240.681" y2="108.634" gradientUnits="userSpaceOnUse">
<stop stop-color="#0F3E5A"/>
<stop offset="1" stop-color="#006BAB"/>
</linearGradient>
<linearGradient id="paint2_linear_78_71" x1="329.925" y1="267.568" x2="215.353" y2="229.686" gradientUnits="userSpaceOnUse">
<stop stop-color="#449F6D"/>
<stop offset="0.985444" stop-color="#006BAB" stop-opacity="0"/>
</linearGradient>
<linearGradient id="paint3_linear_78_71" x1="192.811" y1="90.9143" x2="276.697" y2="267.829" gradientUnits="userSpaceOnUse">
<stop stop-color="#EEDA39"/>
<stop offset="1" stop-color="#E8494F"/>
</linearGradient>
<linearGradient id="paint4_linear_78_71" x1="214.485" y1="53.8894" x2="157.822" y2="179.151" gradientUnits="userSpaceOnUse">
<stop stop-color="#449F6D"/>
<stop offset="1" stop-color="#EDCB3B" stop-opacity="0"/>
</linearGradient>
<linearGradient id="paint5_linear_78_71" x1="329.501" y1="361.761" x2="198.101" y2="287.046" gradientUnits="userSpaceOnUse">
<stop stop-color="#A21C21"/>
<stop offset="1" stop-opacity="0"/>
</linearGradient>
</defs>
</svg>
